# Blender v2.79 (sub 0) OBJ File: 'cut_test.blend'
# www.blender.org
mtllib model.mtl
o ext_big
v -1.005510 1.689218 -1.163155
v 1.761158 1.689218 -1.163155
v 1.761158 1.689218 1.018217
v -1.005510 1.689218 1.018217
v -1.005510 1.689218 -1.163155
v -1.005510 1.689218 1.018217
v -1.005510 -0.000000 1.018217
v -1.005510 0.000000 -1.163155
v 0.895902 0.136860 -1.163155
v 1.120218 0.000000 -1.163155
v 1.120218 1.194034 -1.163155
v 0.895902 1.039982 -1.163155
v 0.227184 0.136860 -1.163155
v 1.761158 1.194034 -1.163155
v 1.761158 1.689218 -1.163155
v -1.005510 1.689218 -1.163155
v 0.227184 1.039982 -1.163155
v -0.094230 0.136860 -1.163155
v -1.005510 0.000000 -1.163155
v -0.762947 0.136860 -1.163155
v -0.094230 1.039982 -1.163155
v -0.762947 1.039982 -1.163155
v 1.761158 1.039981 0.759043
v 1.761158 0.136860 0.759043
v 1.761158 -0.000000 1.018217
v 1.761158 0.136860 0.004784
v 1.761158 1.689218 1.018217
v 1.761158 1.039981 0.004785
v 1.761158 0.000000 -0.517392
v 1.761158 1.194034 -0.517392
v 1.761158 1.689218 -1.163155
v 1.761158 1.194034 -1.163155
v -0.762947 0.136860 1.018217
v -0.094230 0.136860 1.018217
v -1.005510 -0.000000 1.018217
v 0.227184 0.136860 1.018217
v -0.762947 1.039981 1.018217
v -0.094230 1.039981 1.018217
v -1.005510 1.689218 1.018217
v 0.227184 1.039981 1.018217
v 0.895902 0.136860 1.018217
v 1.761158 -0.000000 1.018217
v 0.895902 1.039981 1.018217
v 1.761158 1.689218 1.018217
v 0.895902 0.136860 0.958217
v 0.895902 0.136860 1.018217
v 0.227184 0.136860 1.018217
v 0.227184 0.136860 0.958217
v 0.895902 1.039981 0.958217
v 0.895902 1.039981 1.018217
v 0.895902 0.136860 1.018217
v 0.895902 0.136860 0.958217
v 0.227184 1.039981 0.958217
v 0.227184 1.039981 1.018217
v 0.895902 1.039981 1.018217
v 0.895902 1.039981 0.958217
v 0.227184 0.136860 0.958217
v 0.227184 0.136860 1.018217
v 0.227184 1.039981 1.018217
v 0.227184 1.039981 0.958217
v -0.094230 0.136860 0.958217
v -0.094230 0.136860 1.018217
v -0.762947 0.136860 1.018217
v -0.762947 0.136860 0.958217
v -0.094230 1.039981 0.958217
v -0.094230 1.039981 1.018217
v -0.094230 0.136860 1.018217
v -0.094230 0.136860 0.958217
v -0.762947 1.039981 0.958217
v -0.762947 1.039981 1.018217
v -0.094230 1.039981 1.018217
v -0.094230 1.039981 0.958217
v -0.762947 0.136860 0.958217
v -0.762947 0.136860 1.018217
v -0.762947 1.039981 1.018217
v -0.762947 1.039981 0.958217
v -0.762947 0.136860 -1.103155
v -0.762947 0.136860 -1.163155
v -0.094230 0.136860 -1.163155
v -0.094230 0.136860 -1.103155
v -0.762947 1.039982 -1.103155
v -0.762947 1.039982 -1.163155
v -0.762947 0.136860 -1.163155
v -0.762947 0.136860 -1.103155
v -0.094230 1.039982 -1.103155
v -0.094230 1.039982 -1.163155
v -0.762947 1.039982 -1.163155
v -0.762947 1.039982 -1.103155
v -0.094230 0.136860 -1.103155
v -0.094230 0.136860 -1.163155
v -0.094230 1.039982 -1.163155
v -0.094230 1.039982 -1.103155
v 0.227184 0.136860 -1.103155
v 0.227184 0.136860 -1.163155
v 0.895902 0.136860 -1.163155
v 0.895902 0.136860 -1.103155
v 0.227184 1.039982 -1.103155
v 0.227184 1.039982 -1.163155
v 0.227184 0.136860 -1.163155
v 0.227184 0.136860 -1.103155
v 0.895902 1.039982 -1.103155
v 0.895902 1.039982 -1.163155
v 0.227184 1.039982 -1.163155
v 0.227184 1.039982 -1.103155
v 0.895902 0.136860 -1.103155
v 0.895902 0.136860 -1.163155
v 0.895902 1.039982 -1.163155
v 0.895902 1.039982 -1.103155
v 1.701158 0.136860 0.004784
v 1.761158 0.136860 0.004784
v 1.761158 0.136860 0.759043
v 1.701158 0.136860 0.759043
v 1.701158 1.039981 0.004785
v 1.761158 1.039981 0.004785
v 1.761158 0.136860 0.004784
v 1.701158 0.136860 0.004784
v 1.701158 1.039981 0.759043
v 1.761158 1.039981 0.759043
v 1.761158 1.039981 0.004785
v 1.701158 1.039981 0.004785
v 1.701158 0.136860 0.759043
v 1.761158 0.136860 0.759043
v 1.761158 1.039981 0.759043
v 1.701158 1.039981 0.759043
vt 0.011055 0.489608
vt 0.412954 0.489607
vt 0.412954 0.010393
vt 0.011054 0.010393
vt 0.655612 0.510393
vt 0.344388 0.510393
vt 0.344388 0.888228
vt 0.655612 0.888228
vt 0.036270 0.660264
vt 0.202662 0.660264
vt 0.231045 0.621410
vt 0.011055 0.621410
vt 0.036270 0.776092
vt 0.322279 0.510393
vt 0.231045 0.510393
vt 0.322279 0.989607
vt 0.202662 0.776092
vt 0.036270 0.831764
vt 0.011054 0.989607
vt 0.036270 0.947593
vt 0.202662 0.831764
vt 0.202662 0.947593
vt 0.797338 0.843337
vt 0.988945 0.888228
vt 0.963730 0.843337
vt 0.963730 0.712692
vt 0.797338 0.712692
vt 0.677721 0.888228
vt 0.988945 0.622245
vt 0.768955 0.622245
vt 0.677721 0.510393
vt 0.768955 0.510393
vt 0.460279 0.052407
vt 0.435063 0.010393
vt 0.460279 0.168236
vt 0.460279 0.223908
vt 0.626671 0.052407
vt 0.626671 0.168236
vt 0.746288 0.010393
vt 0.626671 0.223908
vt 0.460279 0.339736
vt 0.435064 0.489607
vt 0.626671 0.339736
vt 0.746288 0.489607
vt 0.768397 0.364823
vt 0.768397 0.480651
vt 0.779451 0.480651
vt 0.779451 0.364823
vt 0.901051 0.010393
vt 0.901051 0.166822
vt 0.912105 0.166822
vt 0.912105 0.010393
vt 0.878942 0.480651
vt 0.878942 0.364823
vt 0.867887 0.364823
vt 0.867887 0.480651
vt 0.779451 0.166822
vt 0.779451 0.010393
vt 0.768397 0.010393
vt 0.768397 0.166822
vt 0.834724 0.364823
vt 0.834724 0.480651
vt 0.845778 0.480651
vt 0.845778 0.364823
vt 0.878942 0.344037
vt 0.878942 0.187608
vt 0.867887 0.187608
vt 0.867887 0.344037
vt 0.978432 0.126221
vt 0.978432 0.010393
vt 0.967378 0.010393
vt 0.967378 0.126221
vt 0.812615 0.344037
vt 0.812615 0.187608
vt 0.801560 0.187608
vt 0.801560 0.344037
vt 0.912106 0.480651
vt 0.912105 0.364823
vt 0.901051 0.364823
vt 0.901051 0.480651
vt 0.801560 0.010393
vt 0.801560 0.166822
vt 0.812615 0.166822
vt 0.812615 0.010393
vt 0.934215 0.364823
vt 0.934215 0.480651
vt 0.945269 0.480651
vt 0.945269 0.364823
vt 0.912105 0.344037
vt 0.912105 0.187608
vt 0.901051 0.187608
vt 0.901051 0.344037
vt 0.812615 0.480651
vt 0.812615 0.364823
vt 0.801560 0.364823
vt 0.801560 0.480651
vt 0.768397 0.187608
vt 0.768397 0.344037
vt 0.779451 0.344037
vt 0.779451 0.187608
vt 0.967378 0.147006
vt 0.967378 0.262835
vt 0.978432 0.262835
vt 0.978432 0.147006
vt 0.878942 0.166822
vt 0.878942 0.010393
vt 0.867887 0.010393
vt 0.867887 0.166822
vt 0.945269 0.141038
vt 0.945269 0.010393
vt 0.934214 0.010393
vt 0.934214 0.141038
vt 0.834724 0.010393
vt 0.834724 0.166822
vt 0.845778 0.166822
vt 0.845778 0.010393
vt 0.934214 0.161823
vt 0.934214 0.292468
vt 0.945269 0.292468
vt 0.945269 0.161823
vt 0.834724 0.187608
vt 0.834724 0.344037
vt 0.845778 0.344037
vt 0.845778 0.187608
vn 0.0000 1.0000 0.0000
vn -1.0000 0.0000 0.0000
vn 0.0000 0.0000 -1.0000
vn 1.0000 -0.0000 0.0000
vn -0.0000 -0.0000 1.0000
vn 0.0000 -1.0000 0.0000
usemtl m_ext_big
s 1
f 1/1/1 4/2/1 3/3/1 2/4/1
f 5/5/2 8/6/2 7/7/2 6/8/2
f 9/9/3 12/10/3 11/11/3 10/12/3
f 13/13/3 9/9/3 10/12/3
f 11/11/3 15/14/3 14/15/3
f 16/16/3 15/14/3 11/11/3
f 11/11/3 12/10/3 17/17/3
f 17/17/3 16/16/3 11/11/3
f 13/13/3 10/12/3 18/18/3
f 19/19/3 18/18/3 10/12/3
f 20/20/3 18/18/3 19/19/3
f 13/13/3 18/18/3 21/21/3 17/17/3
f 21/21/3 22/22/3 16/16/3
f 19/19/3 22/22/3 20/20/3
f 22/22/3 19/19/3 16/16/3
f 17/17/3 21/21/3 16/16/3
f 23/23/4 25/24/4 24/25/4
f 26/26/4 24/25/4 25/24/4
f 23/23/4 28/27/4 27/28/4
f 25/24/4 23/23/4 27/28/4
f 26/26/4 25/24/4 29/29/4
f 29/29/4 30/30/4 28/27/4 26/26/4
f 31/31/4 30/30/4 32/32/4
f 30/30/4 31/31/4 27/28/4
f 28/27/4 30/30/4 27/28/4
f 33/33/5 35/34/5 34/35/5
f 36/36/5 34/35/5 35/34/5
f 37/37/5 35/34/5 33/33/5
f 38/38/5 39/39/5 37/37/5
f 35/34/5 37/37/5 39/39/5
f 40/40/5 39/39/5 38/38/5
f 34/35/5 36/36/5 40/40/5 38/38/5
f 41/41/5 36/36/5 42/42/5
f 35/34/5 42/42/5 36/36/5
f 43/43/5 41/41/5 42/42/5
f 44/44/5 40/40/5 43/43/5
f 42/42/5 44/44/5 43/43/5
f 39/39/5 40/40/5 44/44/5
f 45/45/1 48/46/1 47/47/1 46/48/1
f 49/49/2 52/50/2 51/51/2 50/52/2
f 53/53/6 56/54/6 55/55/6 54/56/6
f 57/57/4 60/58/4 59/59/4 58/60/4
f 61/61/1 64/62/1 63/63/1 62/64/1
f 65/65/2 68/66/2 67/67/2 66/68/2
f 69/69/6 72/70/6 71/71/6 70/72/6
f 73/73/4 76/74/4 75/75/4 74/76/4
f 77/77/1 80/78/1 79/79/1 78/80/1
f 81/81/4 84/82/4 83/83/4 82/84/4
f 85/85/6 88/86/6 87/87/6 86/88/6
f 89/89/2 92/90/2 91/91/2 90/92/2
f 93/93/1 96/94/1 95/95/1 94/96/1
f 97/97/4 100/98/4 99/99/4 98/100/4
f 101/101/6 104/102/6 103/103/6 102/104/6
f 105/105/2 108/106/2 107/107/2 106/108/2
f 109/109/1 112/110/1 111/111/1 110/112/1
f 113/113/5 116/114/5 115/115/5 114/116/5
f 117/117/6 120/118/6 119/119/6 118/120/6
f 121/121/3 124/122/3 123/123/3 122/124/3
o cut
v 0.227184 0.293604 -1.163155
v 0.227184 0.293604 -1.103155
v -0.094230 0.293604 -1.103155
v -0.094230 0.293604 -1.163155
v 1.120218 0.293604 -1.163155
v 1.180218 0.293604 -1.103155
v 0.895902 0.293604 -1.103155
v 1.120218 0.293605 -2.797757
v 1.180218 0.293605 -2.737757
v 0.895902 0.293604 -1.163155
v 3.567629 0.293605 -2.797757
v 3.507629 0.293605 -2.737757
v 1.761158 0.293604 -0.517392
v 1.761158 0.293604 0.004784
v 1.701158 0.293604 0.004784
v 1.701158 0.293604 -0.577392
v 3.567629 0.293604 -0.517392
v 3.507629 0.293604 -0.577392
v 1.701158 0.293604 0.958217
v 1.761158 0.293604 1.018217
v 0.895902 0.293604 1.018217
v 0.895902 0.293604 0.958217
v 1.701158 0.293604 0.759043
v 1.761158 0.293604 0.759043
v 0.227184 0.293604 0.958217
v 0.227184 0.293604 1.018217
v -0.094230 0.293604 1.018217
v -0.094230 0.293604 0.958217
v -0.945510 0.293604 -1.103155
v -0.945510 0.293604 0.958217
v -1.005510 0.293604 1.018217
v -0.762947 0.293604 1.018217
v -0.762947 0.293604 -1.163155
v -0.762947 0.293604 -1.103155
v -1.005510 0.293604 -1.163155
v -0.762947 0.293604 0.958217
vn 0.0000 1.0000 0.0000
usemtl m_cut
s 1
f 125//7 128//7 127//7 126//7
f 129//7 131//7 130//7
f 132//7 129//7 133//7
f 131//7 129//7 134//7
f 133//7 136//7 135//7 132//7
f 133//7 129//7 130//7
f 137//7 139//7 138//7
f 140//7 139//7 137//7
f 136//7 142//7 141//7 135//7
f 137//7 141//7 142//7 140//7
f 143//7 146//7 145//7 144//7
f 147//7 143//7 144//7 148//7
f 149//7 152//7 151//7 150//7
f 153//7 155//7 154//7
f 156//7 154//7 155//7
f 157//7 159//7 153//7 158//7
f 155//7 153//7 159//7
f 154//7 156//7 160//7
o windows
v 0.895902 1.039982 -1.103155
v 0.895902 0.136860 -1.103155
v 0.227184 0.136860 -1.103155
v 0.227184 1.039982 -1.103155
v -0.094230 1.039982 -1.103155
v -0.094230 0.136860 -1.103155
v -0.762947 0.136860 -1.103155
v -0.762947 1.039982 -1.103155
v 0.227184 1.039981 0.958217
v 0.227184 0.136860 0.958217
v 0.895902 0.136860 0.958217
v 0.895902 1.039981 0.958217
v -0.762947 1.039981 0.958217
v -0.762947 0.136860 0.958217
v -0.094230 0.136860 0.958217
v -0.094230 1.039981 0.958217
v 1.701158 1.039981 0.759043
v 1.701158 0.136860 0.759043
v 1.701158 0.136860 0.004784
v 1.701158 1.039981 0.004785
vn 0.0000 0.0000 -1.0000
vn 0.0000 -0.0000 1.0000
vn 1.0000 -0.0000 0.0000
usemtl m_windows
s 1
f 161//8 162//8 163//8 164//8
f 165//8 166//8 167//8 168//8
f 169//9 170//9 171//9 172//9
f 173//9 174//9 175//9 176//9
f 177//10 178//10 179//10 180//10
o int_down
v 1.701158 0.136860 0.004784
v 1.701158 0.293604 -0.577392
v 1.701158 0.293604 0.004784
v 1.701158 0.054509 0.958217
v 1.701158 0.054509 -0.577392
v 1.701158 0.136860 0.759043
v 1.701158 0.293604 0.759043
v 1.701158 0.293604 0.958217
v 0.895902 0.136860 0.958217
v 1.701158 0.293604 0.958217
v 0.895902 0.293604 0.958217
v 0.227184 0.136860 0.958217
v 1.701158 0.054509 0.958217
v -0.945510 0.054509 0.958217
v 0.227184 0.293604 0.958217
v -0.094230 0.293604 0.958217
v -0.094230 0.136860 0.958217
v -0.762947 0.136860 0.958217
v -0.762947 0.293604 0.958217
v -0.945510 0.293604 0.958217
v -0.762947 0.136860 -1.103155
v -0.945510 0.293604 -1.103155
v -0.762947 0.293604 -1.103155
v -0.094230 0.136860 -1.103155
v -0.945510 0.054509 -1.103155
v 0.227184 0.136860 -1.103155
v -0.094230 0.293604 -1.103155
v 0.227184 0.293604 -1.103155
v 0.895902 0.136860 -1.103155
v 0.895902 0.293604 -1.103155
v 1.180218 0.293604 -1.103155
v 1.180218 0.054509 -1.103155
v 1.701158 0.054509 -0.577392
v 1.180218 0.054509 -1.103155
v 3.507629 0.054509 -0.577392
v 3.507629 0.054510 -2.737757
v 1.701158 0.054509 0.958217
v -0.945510 0.054509 0.958217
v -0.945510 0.054509 -1.103155
v 1.180218 0.054510 -2.737757
v 3.507629 0.054509 -0.577392
v 3.507629 0.293604 -0.577392
v 1.701158 0.293604 -0.577392
v 1.701158 0.054509 -0.577392
v 3.507629 0.054510 -2.737757
v 3.507629 0.293605 -2.737757
v 3.507629 0.293604 -0.577392
v 3.507629 0.054509 -0.577392
v 1.180218 0.054510 -2.737757
v 1.180218 0.293605 -2.737757
v 3.507629 0.293605 -2.737757
v 3.507629 0.054510 -2.737757
v 1.180218 0.054509 -1.103155
v 1.180218 0.293604 -1.103155
v 1.180218 0.293605 -2.737757
v 1.180218 0.054510 -2.737757
v -0.945510 0.054509 0.958217
v -0.945510 0.293604 0.958217
v -0.945510 0.293604 -1.103155
v -0.945510 0.054509 -1.103155
vt 0.972898 0.885153
vt 0.943055 0.885153
vt 0.943055 0.989270
vt 0.988576 0.714641
vt 0.972898 0.750261
vt 0.988576 0.989270
vt 0.943055 0.714641
vt 0.943055 0.750261
vt 0.753629 0.154743
vt 0.783471 0.154743
vt 0.783471 0.010730
vt 0.753628 0.274336
vt 0.737950 0.010730
vt 0.737950 0.484061
vt 0.753628 0.331818
vt 0.783471 0.331818
vt 0.783471 0.274336
vt 0.753628 0.451411
vt 0.783471 0.484061
vt 0.783471 0.451411
vt 0.904529 0.358246
vt 0.874686 0.358246
vt 0.874686 0.390896
vt 0.904529 0.238653
vt 0.920208 0.390896
vt 0.904529 0.181171
vt 0.874687 0.181171
vt 0.874687 0.238653
vt 0.904529 0.061578
vt 0.874687 0.010730
vt 0.874687 0.061578
vt 0.920208 0.010730
vt 0.303789 0.484061
vt 0.303789 0.807131
vt 0.403890 0.390896
vt 0.715103 0.807131
vt 0.011423 0.010730
vt 0.011423 0.484061
vt 0.403890 0.010730
vt 0.715103 0.390896
vt 0.783471 0.828592
vt 0.783471 0.505522
vt 0.737950 0.505522
vt 0.737950 0.828592
vt 0.806318 0.448426
vt 0.806318 0.834786
vt 0.851840 0.834786
vt 0.851840 0.448426
vt 0.851840 0.426965
vt 0.851840 0.010730
vt 0.806318 0.010730
vt 0.806318 0.426965
vt 0.943055 0.400848
vt 0.943055 0.693180
vt 0.988577 0.693180
vt 0.988576 0.400848
vt 0.943055 0.010730
vt 0.943055 0.379387
vt 0.988577 0.379387
vt 0.988576 0.010730
vn -1.0000 -0.0000 0.0000
vn 0.0000 0.0000 -1.0000
vn 0.0000 0.0000 1.0000
vn 0.0000 1.0000 0.0000
vn 1.0000 0.0000 0.0000
usemtl m_int_down
s 1
f 181/125/11 183/126/11 182/127/11
f 184/128/11 186/129/11 181/125/11 185/130/11
f 182/127/11 185/130/11 181/125/11
f 186/129/11 188/131/11 187/132/11
f 188/131/11 186/129/11 184/128/11
f 189/133/12 191/134/12 190/135/12
f 192/136/12 189/133/12 193/137/12
f 190/135/12 193/137/12 189/133/12
f 194/138/12 192/136/12 193/137/12
f 192/136/12 197/139/12 196/140/12 195/141/12
f 198/142/12 200/143/12 199/144/12
f 194/138/12 198/142/12 197/139/12
f 200/143/12 198/142/12 194/138/12
f 192/136/12 194/138/12 197/139/12
f 201/145/13 203/146/13 202/147/13
f 204/148/13 201/145/13 205/149/13
f 202/147/13 205/149/13 201/145/13
f 206/150/13 204/148/13 205/149/13
f 204/148/13 206/150/13 208/151/13 207/152/13
f 209/153/13 211/154/13 210/155/13
f 212/156/13 209/153/13 206/150/13
f 211/154/13 209/153/13 212/156/13
f 205/149/13 212/156/13 206/150/13
f 213/157/14 215/158/14 214/159/14
f 216/160/14 214/159/14 215/158/14
f 213/157/14 218/161/14 217/162/14
f 219/163/14 218/161/14 214/159/14
f 213/157/14 214/159/14 218/161/14
f 216/160/14 220/164/14 214/159/14
f 221/165/12 224/166/12 223/167/12 222/168/12
f 225/169/11 228/170/11 227/171/11 226/172/11
f 229/173/13 232/174/13 231/175/13 230/176/13
f 233/177/15 236/178/15 235/179/15 234/180/15
f 237/181/15 240/182/15 239/183/15 238/184/15
o ext_small
v 1.761158 1.194034 -1.163155
v 1.120218 1.194034 -1.163155
v 1.120218 1.194035 -2.797757
v 3.567629 1.194035 -2.797757
v 3.567629 1.194034 -0.517392
v 1.761158 1.194034 -0.517392
v 1.120218 1.194035 -2.797757
v 1.120218 1.194034 -1.163155
v 1.120218 0.000000 -1.163155
v 1.120218 0.000000 -2.797757
v 1.761158 1.194034 -0.517392
v 3.567629 1.194034 -0.517392
v 3.567629 0.000000 -0.517392
v 1.761158 0.000000 -0.517392
v 3.567629 1.194035 -2.797757
v 1.120218 1.194035 -2.797757
v 1.120218 0.000000 -2.797757
v 3.567629 0.000000 -2.797757
v 3.567629 1.194034 -0.517392
v 3.567629 1.194035 -2.797757
v 3.567629 0.000000 -2.797757
v 3.567629 0.000000 -0.517392
vt 0.429873 0.375716
vt 0.015221 0.504735
vt 0.429873 0.504735
vt 0.015220 0.012078
vt 0.593684 0.012078
vt 0.593685 0.375716
vt 0.984780 0.528891
vt 0.681887 0.528891
vt 0.681887 0.857932
vt 0.984780 0.857932
vt 0.651446 0.528891
vt 0.348554 0.528891
vt 0.348554 0.892528
vt 0.651446 0.892528
vt 0.927018 0.012078
vt 0.624125 0.012078
vt 0.624125 0.504735
vt 0.927018 0.504735
vt 0.318113 0.528891
vt 0.015220 0.528891
vt 0.015221 0.987922
vt 0.318113 0.987922
vn 0.0000 1.0000 0.0000
vn -1.0000 -0.0000 0.0000
vn 0.0000 -0.0000 1.0000
vn 0.0000 0.0000 -1.0000
vn 1.0000 0.0000 0.0000
usemtl m_ext_small
s 1
f 241/185/16 243/186/16 242/187/16
f 244/188/16 241/185/16 245/189/16
f 246/190/16 245/189/16 241/185/16
f 243/186/16 241/185/16 244/188/16
f 247/191/17 250/192/17 249/193/17 248/194/17
f 251/195/18 254/196/18 253/197/18 252/198/18
f 255/199/19 258/200/19 257/201/19 256/202/19
f 259/203/20 262/204/20 261/205/20 260/206/20
o lot
v 7.302309 0.000001 -5.419971
v -4.644696 0.000001 -5.419971
v -4.644696 -0.000000 2.898184
v 7.302309 -0.000000 2.898184
vt 0.007111 0.995028
vt 0.007111 0.004972
vt 0.992889 0.004972
vt 0.992889 0.995028
vn 0.0000 1.0000 0.0000
usemtl m_lot
s 1
f 263/207/21 264/208/21 265/209/21 266/210/21
