g window_frame
v 3.524898767471313 0 -5.094177722930908
v 3.524898767471313 9.13908863067627 -5.094177722930908
v 6.022609710693359 0 -5.094177722930908
v 6.022609710693359 9.13908863067627 -5.094177722930908
v 6.022609710693359 0 -5.094177722930908
v 6.022609710693359 9.13908863067627 -5.094177722930908
v 6.022609710693359 0 -6.964303016662598
v 6.022609710693359 9.13908863067627 -6.964303016662598
v 6.022609710693359 0 -6.964303016662598
v 6.022609710693359 9.13908863067627 -6.964303016662598
v 3.524898767471313 0 -6.964303016662598
v 3.524898767471313 9.13908863067627 -6.964303016662598
v 3.524898767471313 0 -6.964303016662598
v 3.524898767471313 9.13908863067627 -6.964303016662598
v 3.524898767471313 0 -5.094177722930908
v 3.524898767471313 9.13908863067627 -5.094177722930908
v 3.524898767471313 0 -5.094177722930908
v 6.022609710693359 0 -5.094177722930908
v 6.022609710693359 0 -6.964303016662598
v 3.524898767471313 0 -6.964303016662598
v 3.524898767471313 9.13908863067627 -5.094177722930908
v 6.022609710693359 9.13908863067627 -5.094177722930908
v 6.022609710693359 9.13908863067627 -6.964303016662598
v 3.524898767471313 9.13908863067627 -6.964303016662598
vt 0 0
vt 0 1
vt 0.2430614829063416 0
vt 0.2430614829063416 1
vt 0.2430614829063416 0
vt 0.2430614829063416 1
vt 0.4250502586364746 0
vt 0.4250502586364746 1
vt 0.4250502586364746 0
vt 0.4250502586364746 1
vt 0.6681117415428162 0
vt 0.6681117415428162 1
vt 0.6681117415428162 0
vt 0.6681117415428162 1
vt 0.8501005172729492 0
vt 0.8501005172729492 1
vt 1 0.2732997834682465
vt 1 0
vt 0.8501014113426208 0
vt 0.8501014113426208 0.2732997834682465
vt 1 0.7267002463340759
vt 1 1
vt 0.8501014113426208 1
vt 0.8501014113426208 0.7267002463340759
vn 0 0 1
vn 0 0 1
vn 0 0 1
vn 0 0 1
vn 1 0 0
vn 1 0 0
vn 1 0 0
vn 1 0 0
vn 0 0 -1
vn 0 0 -1
vn 0 0 -1
vn 0 0 -1
vn -1 0 0
vn -1 0 0
vn -1 0 0
vn -1 0 0
vn 0 -1 0
vn 0 -1 0
vn 0 -1 0
vn 0 -1 0
vn 0 1 0
vn 0 1 0
vn 0 1 0
vn 0 1 0
f 1/1/1 3/3/3 4/4/4 2/2/2
f 5/5/5 7/7/7 8/8/8 6/6/6
f 9/9/9 11/11/11 12/12/12 10/10/10
f 13/13/13 15/15/15 16/16/16 14/14/14
f 18/18/18 17/17/17 20/20/20
f 20/20/20 19/19/19 18/18/18
f 22/22/22 24/24/24 21/21/21
f 24/24/24 22/22/22 23/23/23
